<svg xmlns="http://www.w3.org/2000/svg" viewBox="0 0 480 200" fill="none">
  <defs>
    <linearGradient id="bg" x1="0" y1="0" x2="1" y2="1">
      <stop offset="0%" stop-color="#e6fffa"/>
      <stop offset="100%" stop-color="#f0fdfa"/>
    </linearGradient>
  </defs>
  <rect width="480" height="200" fill="url(#bg)"/>
  <rect x="32" y="36" width="140" height="100" rx="12" fill="#fff" stroke="#99f6e4" stroke-width="1.5"/>
  <rect x="44" y="52" width="48" height="8" rx="4" fill="#0d9488"/>
  <rect x="44" y="68" width="116" height="6" rx="3" fill="#e2e8f0"/>
  <rect x="44" y="82" width="96" height="6" rx="3" fill="#e2e8f0"/>
  <rect x="44" y="96" width="108" height="6" rx="3" fill="#e2e8f0"/>
  <rect x="44" y="110" width="72" height="6" rx="3" fill="#ccfbf1"/>
  <rect x="188" y="28" width="120" height="120" rx="14" fill="#fff" stroke="#5eead4" stroke-width="1.5"/>
  <circle cx="248" cy="68" r="28" fill="#ccfbf1"/>
  <path d="M232 68h32M248 52v32" stroke="#0d9488" stroke-width="4" stroke-linecap="round"/>
  <rect x="324" y="44" width="124" height="84" rx="12" fill="#fff" stroke="#99f6e4"/>
  <rect x="336" y="58" width="100" height="10" rx="5" fill="#0d9488" opacity="0.85"/>
  <rect x="336" y="78" width="80" height="8" rx="4" fill="#e2e8f0"/>
  <rect x="336" y="94" width="90" height="8" rx="4" fill="#e2e8f0"/>
  <rect x="336" y="110" width="64" height="8" rx="4" fill="#ccfbf1"/>
</svg>
