<svg xmlns="http://www.w3.org/2000/svg" viewBox="0 0 280 160" fill="none">
  <rect x="24" y="20" width="232" height="120" rx="14" fill="rgba(255,255,255,0.12)" stroke="rgba(255,255,255,0.25)" stroke-width="1.5"/>
  <rect x="40" y="36" width="72" height="88" rx="8" fill="rgba(255,255,255,0.9)"/>
  <rect x="44" y="40" width="64" height="14" rx="4" fill="#0d9488"/>
  <circle cx="52" cy="66" r="4" fill="#cbd5e1"/>
  <circle cx="68" cy="66" r="4" fill="#cbd5e1"/>
  <circle cx="84" cy="66" r="4" fill="#cbd5e1"/>
  <circle cx="100" cy="66" r="4" fill="#cbd5e1"/>
  <circle cx="52" cy="82" r="4" fill="#cbd5e1"/>
  <circle cx="68" cy="82" r="4" fill="#0d9488"/>
  <circle cx="84" cy="82" r="4" fill="#cbd5e1"/>
  <circle cx="100" cy="82" r="4" fill="#cbd5e1"/>
  <circle cx="52" cy="98" r="4" fill="#cbd5e1"/>
  <circle cx="68" cy="98" r="4" fill="#cbd5e1"/>
  <circle cx="84" cy="98" r="4" fill="#0d9488"/>
  <rect x="124" y="48" width="116" height="12" rx="6" fill="rgba(255,255,255,0.35)"/>
  <rect x="124" y="68" width="88" height="10" rx="5" fill="rgba(255,255,255,0.22)"/>
  <rect x="124" y="86" width="100" height="28" rx="8" fill="rgba(46,200,167,0.35)" stroke="rgba(255,255,255,0.4)"/>
  <path d="M132 100h84M132 108h52" stroke="rgba(255,255,255,0.55)" stroke-width="2" stroke-linecap="round"/>
</svg>
